<?xml version="1.0" encoding="utf-8"?>
<!-- Generator: Adobe Illustrator 25.0.0, SVG Export Plug-In . SVG Version: 6.00 Build 0)  -->
<svg version="1.1" id="Layer_1" xmlns="http://www.w3.org/2000/svg" xmlns:xlink="http://www.w3.org/1999/xlink" x="0px" y="0px"
	 viewBox="0 0 640 512" style="enable-background:new 0 0 640 512;" xml:space="preserve">
<style type="text/css">
	.st0{fill:#A0A6F8;}
</style>
<path class="st0" d="M278.9,511.5l-61-17.7c-6.4-1.8-10-8.5-8.2-14.8c0,0,0,0,0-0.1L346.2,8.7c1.8-6.4,8.5-10,14.8-8.2
	c0,0,0,0,0.1,0l61,17.7c6.4,1.8,10,8.5,8.2,14.8c0,0,0,0,0,0.1L293.8,503.3C292,509.6,285.3,513.3,278.9,511.5
	C279,511.5,278.9,511.5,278.9,511.5z M164.9,399.3l43.5-46.4c4.5-4.8,4.3-12.4-0.5-17c-0.1-0.1-0.2-0.2-0.3-0.2L117,256l90.6-79.7
	c5-4.3,5.5-11.9,1.1-16.8c-0.1-0.1-0.2-0.3-0.3-0.4l-43.5-46.4c-4.5-4.8-12.1-5.1-17-0.5c0,0,0,0,0,0L3.8,247.2
	c-4.8,4.5-5.1,12-0.7,16.8c0.2,0.2,0.4,0.4,0.7,0.7l144.1,135.1c4.7,4.6,12.3,4.4,16.9-0.3C164.8,399.4,164.9,399.3,164.9,399.3z
	 M492.1,399.9l144.1-135.1c4.8-4.5,5.1-12,0.7-16.8c-0.2-0.2-0.4-0.4-0.7-0.7L492.1,112.1c-4.9-4.5-12.4-4.3-17,0.5L431.6,159
	c-4.5,4.8-4.3,12.4,0.5,17c0.1,0.1,0.2,0.2,0.3,0.2L523,256l-90.6,79.7c-5,4.3-5.5,11.9-1.1,16.8c0.1,0.1,0.2,0.3,0.3,0.4l43.5,46.4
	C479.6,404.1,487.2,404.4,492.1,399.9C492.1,399.9,492.1,399.9,492.1,399.9L492.1,399.9z"/>
</svg>
